<svg id="Calque_1" data-name="Calque 1" xmlns="http://www.w3.org/2000/svg" viewBox="0 0 989.06 610.34"><defs><style>.cls-1{fill:#f3f3f3;}.cls-2{fill:#776992;}.cls-3,.cls-5{fill:#c91d60;}.cls-3{opacity:0.3;}.cls-3,.cls-7{isolation:isolate;}.cls-4{fill:#302e41;}.cls-6{fill:#f9b7b8;}.cls-7{fill:#010101;opacity:0.1;}.cls-8{fill:#d1cde2;}.cls-9{fill:#403e56;}</style></defs><title>verification</title><rect class="cls-1" x="439.32" y="-190.17" width="38" height="748.72" transform="translate(265.22 507.58) rotate(-59.35)"/><rect class="cls-1" x="299.32" y="-158.17" width="38" height="748.72" transform="translate(169.06 402.83) rotate(-59.35)"/><rect class="cls-1" x="175.32" y="-123.17" width="38" height="748.72" transform="translate(78.16 313.31) rotate(-59.35)"/><circle class="cls-2" cx="569.51" cy="245.76" r="201.67"/><path class="cls-3" d="M370.51,259.58a35.95,35.95,0,1,1,35.95-35.95h0A36,36,0,0,1,370.51,259.58Zm0-70.14a34.2,34.2,0,1,0,34.2,34.19h0a34.23,34.23,0,0,0-34.2-34.19Z" transform="translate(199 23)"/><path class="cls-3" d="M370.51,292a68.4,68.4,0,1,1,68.39-68.4h0A68.48,68.48,0,0,1,370.51,292Zm0-135a66.64,66.64,0,1,0,66.64,66.63A66.64,66.64,0,0,0,370.51,157Z" transform="translate(199 23)"/><path class="cls-3" d="M370.51,320.08A96.45,96.45,0,1,1,467,223.63,96.45,96.45,0,0,1,370.51,320.08Zm0-191.14a94.7,94.7,0,1,0,94.7,94.69h0a94.8,94.8,0,0,0-94.7-94.69Z" transform="translate(199 23)"/><path class="cls-3" d="M370.51,356.91c-73.49,0-133.28-59.79-133.28-133.28S297,90.36,370.51,90.36s133.28,59.79,133.28,133.27S444,356.91,370.51,356.91Zm0-264.8C298,92.11,239,151.11,239,223.63s59,131.53,131.52,131.53S502,296.16,502,223.63,443,92.11,370.51,92.11Z" transform="translate(199 23)"/><path class="cls-3" d="M370.51,387.6c-90.41,0-164-73.55-164-164s73.55-164,164-164,164,73.55,164,164S460.92,387.6,370.51,387.6Zm0-326.18c-89.44,0-162.21,72.77-162.21,162.21s72.77,162.22,162.21,162.22,162.21-72.77,162.21-162.22S460,61.42,370.51,61.42Z" transform="translate(199 23)"/><circle class="cls-3" cx="569.51" cy="245.76" r="16.66"/><circle class="cls-3" cx="612.47" cy="293.98" r="16.66"/><circle class="cls-3" cx="296.86" cy="263.97" r="16.66" transform="translate(187.75 537.71) rotate(-80.78)"/><circle class="cls-4" cx="569.51" cy="245.76" r="7.89"/><circle class="cls-4" cx="495.86" cy="286.97" r="7.89"/><circle class="cls-4" cx="612.47" cy="294.86" r="7.89"/><circle class="cls-5" cx="937.77" cy="157.2" r="7.89"/><polygon class="cls-4" points="569.95 246.2 568.2 246.2 568.2 155.88 916.29 155.88 916.29 157.64 569.95 157.64 569.95 246.2"/><path class="cls-4" d="M738.77,157a22.8,22.8,0,1,1,22.8-22.8A22.79,22.79,0,0,1,738.77,157Zm0-43.84a21,21,0,1,0,21.05,21,21,21,0,0,0-21.05-21Z" transform="translate(199 23)"/><circle class="cls-5" cx="885.17" cy="384.3" r="7.89"/><path class="cls-4" d="M686.17,384.09A22.8,22.8,0,1,1,709,361.3h0A22.81,22.81,0,0,1,686.17,384.09Zm0-43.84a21,21,0,1,0,21,21.05,21,21,0,0,0-21-21.05Z" transform="translate(199 23)"/><circle class="cls-5" cx="251.23" cy="194.03" r="7.89"/><path class="cls-4" d="M52.23,193.82A22.8,22.8,0,1,1,75,171,22.79,22.79,0,0,1,52.23,193.82Zm0-43.84a21,21,0,1,0,21,21.05h0a21.07,21.07,0,0,0-21-21.05Z" transform="translate(199 23)"/><polygon class="cls-4" points="496.74 286.97 494.98 286.97 494.98 198.4 273.13 194.9 273.16 193.15 496.74 196.67 496.74 286.97"/><polygon class="cls-4" points="863.25 385.17 611.6 385.17 611.6 294.86 613.35 294.86 613.35 383.42 863.25 383.42 863.25 385.17"/><rect class="cls-4" x="889.55" y="198.41" width="96.45" height="6.14"/><rect class="cls-4" x="889.55" y="215.95" width="96.45" height="6.14"/><rect class="cls-4" x="889.55" y="233.48" width="96.45" height="6.14"/><rect class="cls-4" x="836.94" y="425.51" width="96.45" height="6.14"/><rect class="cls-4" x="836.94" y="443.04" width="96.45" height="6.14"/><rect class="cls-4" x="836.94" y="460.58" width="96.45" height="6.14"/><rect class="cls-4" x="203" y="236.11" width="96.45" height="6.14"/><rect class="cls-4" x="203" y="253.65" width="96.45" height="6.14"/><rect class="cls-4" x="203" y="271.19" width="96.45" height="6.14"/><ellipse class="cls-1" cx="577.4" cy="575.45" rx="192.02" ry="6.14"/><rect class="cls-4" y="608.34" width="648" height="2"/><path class="cls-6" d="M-125,156.19s9.18,26.12,3.53,30.14,19.06,36.84,19.06,36.84l29.66-8L-89,187.67s-2.12-27.46-2.12-31.48S-125,156.19-125,156.19Z" transform="translate(199 23)"/><path class="cls-7" d="M-125,156.19s9.18,26.12,3.53,30.14,19.06,36.84,19.06,36.84l29.66-8L-89,187.67s-2.12-27.46-2.12-31.48S-125,156.19-125,156.19Z" transform="translate(199 23)"/><path class="cls-4" d="M-140.42,342.4s-2.67,33.5,0,50.91,6.7,65.65,6.7,65.65,0,91.09,14.74,92.43,25.45,2.68,26.79-2.68-6.7-8-2.68-10.71,5.36-12.06,0-22.78,0-119.23,0-119.23l25.46,68.32s2.68,56.27,5.36,64.31-2.68,22.77,6.69,24.11,20.1-6.7,25.46-9.38-8-2.67-5.36-4,10.72-5.36,8-6.7S-34.58,467-34.58,467s-7.37-137.31-16.75-142.67-15.4,3.87-15.4,3.87Z" transform="translate(199 23)"/><path class="cls-4" d="M-116.3,546v10.72s-12.06,29.13,0,29.13,21.43,3,21.43-1V548.71Z" transform="translate(199 23)"/><path class="cls-4" d="M-37.26,546v10.71s12.06,29.14,0,29.14-21.43,3-21.43-1V548.69Z" transform="translate(199 23)"/><circle class="cls-6" cx="92.75" cy="174.5" r="24.11"/><path class="cls-8" d="M-113.62,196.38s6.7,20.09,17.41,16.07l10.72-4L-66.73,337s-14.74,21.44-36.17,8S-113.62,196.38-113.62,196.38Z" transform="translate(199 23)"/><path class="cls-9" d="M-94.87,192.36l6-12.73s35.5,16.75,40.86,22.11,5.36,13.39,5.36,13.39L-52,248.63s2.68,73.68,2.68,76.36,9.38,17.41,2.68,12.05-8-10.71-13.39-2.67-17.42,17.41-17.42,17.41Z" transform="translate(199 23)"/><path class="cls-6" d="M-48,288.82l-4,37.51s-24.11,21.43-18.75,22.77,8-4,8-4,9.37,9.38,14.73,4,18.76-56.26,18.76-56.26Z" transform="translate(199 23)"/><path class="cls-4" d="M-105.74,117.42c-5.35-.19-11.07-.29-15.57,2.59a22.86,22.86,0,0,0-5.39,5.27c-4.39,5.55-8.18,12.54-6.55,19.42l1.9-.74a12.42,12.42,0,0,1-1.2,5.32c.27-.78,1.16.47.92,1.26l-2.09,6.84a6.45,6.45,0,0,1,8.06,4.26c.06.21.12.43.16.65.24-7.95,1.06-17.07,7.51-21.72,3.26-2.35,7.37-3.07,11.33-3.7,3.65-.59,7.48-1.15,11,0s6.48,4.78,5.69,8.4c1.61-.56,3.42.56,4.21,2.07a10.87,10.87,0,0,1,.87,5c1.72,1.21,3.67-1.2,4.38-3.19,1.64-4.66,3.1-9.62,2.22-14.48s-4.85-9.51-9.8-9.53a3.48,3.48,0,0,0,.9-2.42l-4.08-.34A4.49,4.49,0,0,0-88.6,121C-90.23,122.81-103.09,117.51-105.74,117.42Z" transform="translate(199 23)"/><path class="cls-9" d="M-106.92,188.34s-10.91-10.69-14.83-10-9.29,10-9.29,10-32.15,10.72-30.81,21.44,16.08,63,16.08,63,12.05,63,1.34,69.66,50.9,24.12,52.24,16.08,4-88.42,0-100.48S-106.92,188.34-106.92,188.34Z" transform="translate(199 23)"/><path class="cls-6" d="M-149.79,300.87l18.75,8s36.17,5.36,36.17-9.38S-131,292.84-131,292.84L-143.1,289Z" transform="translate(199 23)"/><path class="cls-9" d="M-60,209.78h16.56S-31.9,260.68-30.56,266s4,30.81,2.68,30.81S-56,291.5-56,295.51Z" transform="translate(199 23)"/><path class="cls-9" d="M-145.77,201.74l-16.08,4-12.06,71s-4,18.75,2.68,20.09,25.46,12.06,25.46,12.06,2.68-20.09,8-20.09l-13.39-10.72,8-46.89Z" transform="translate(199 23)"/><path class="cls-9" d="M310,546.34H284v-26h26Zm-24-2h22v-22H286Z" transform="translate(199 23)"/><circle class="cls-5" cx="525" cy="559.34" r="10"/></svg>